<!DOCTYPE svg PUBLIC "-//W3C//DTD SVG 20010904//EN" "http://www.w3.org/TR/2001/REC-SVG-20010904/DTD/svg10.dtd">
<svg version="1.0" xmlns="http://www.w3.org/2000/svg" width="411px" height="411px" viewBox="0 0 4110 4110" preserveAspectRatio="xMidYMid meet">
<g id="layer101" fill="#4275b3" stroke="none">
 <path d="M2200 3878 c0 -95 -3 -522 -7 -949 l-6 -776 69 -40 c151 -88 460 -262 475 -268 14 -5 16 41 22 461 4 257 7 688 7 958 l0 491 -43 23 c-23 13 -91 51 -152 84 -271 149 -344 188 -354 188 -8 0 -11 -54 -11 -172z"/>
 <path d="M1554 3930 c-76 -40 -168 -89 -204 -109 -36 -21 -149 -84 -251 -140 -168 -93 -188 -106 -193 -133 -7 -36 -8 -638 -1 -638 2 0 28 15 57 33 29 18 70 44 92 57 l39 23 -8 -324 c-4 -185 -11 -329 -17 -336 -5 -7 -45 -36 -89 -64 l-79 -52 0 -324 c0 -177 2 -323 4 -323 3 0 31 15 63 34 32 18 126 71 208 117 83 45 186 103 230 127 286 159 449 343 558 632 20 53 21 76 25 635 2 319 1 608 -3 643 -13 122 -100 202 -230 210 -60 4 -65 2 -201 -68z"/>
 <path d="M2827 3568 c-4 -66 -7 -201 -7 -299 l0 -177 38 -23 c83 -50 132 -93 144 -128 9 -25 13 -116 13 -306 0 -271 -5 -325 -28 -325 -7 0 -43 18 -81 40 -38 22 -71 38 -73 36 -3 -2 -7 -143 -10 -313 l-5 -308 38 -21 c22 -11 82 -44 134 -74 192 -107 397 -218 477 -259 151 -75 294 -77 364 -5 33 34 34 39 40 132 4 53 7 354 8 667 1 639 2 624 -70 769 -55 108 -133 216 -221 303 -70 69 -86 78 -409 242 -185 94 -338 171 -341 171 -3 0 -8 -55 -11 -122z"/>
 <path d="M790 3499 c-8 -5 -51 -30 -95 -56 -44 -25 -127 -72 -185 -106 -58 -33 -133 -75 -167 -94 l-63 -34 0 -985 c0 -541 2 -984 5 -984 10 0 87 41 170 90 119 70 263 153 328 189 l57 32 0 648 c0 812 -9 1311 -24 1310 -6 0 -18 -5 -26 -10z"/>
 <path d="M1812 1854 c-120 -35 -181 -67 -719 -380 -57 -32 -103 -64 -103 -70 0 -6 14 -17 31 -25 18 -7 68 -34 112 -61 44 -26 81 -48 82 -48 3 0 261 -151 290 -169 18 -12 32 -8 114 33 l92 47 207 -107 c242 -124 342 -182 342 -197 0 -6 -30 -42 -66 -78 l-67 -67 39 -25 c22 -13 134 -84 249 -157 l210 -132 70 37 c130 70 462 264 550 321 95 60 166 126 210 192 36 55 39 142 6 195 -36 59 -82 91 -291 207 -47 25 -229 127 -405 225 -492 275 -519 285 -740 284 -108 0 -144 -4 -213 -25z"/>
 <path d="M865 1349 c-16 -11 -137 -81 -267 -155 -131 -75 -238 -140 -238 -144 0 -4 12 -12 28 -19 24 -12 85 -46 377 -216 50 -29 137 -79 195 -112 226 -130 451 -259 570 -328 411 -238 516 -296 532 -292 9 3 127 76 262 163 190 122 243 161 234 170 -7 6 -114 69 -238 139 -124 71 -295 169 -380 218 -85 49 -202 116 -260 149 -58 34 -145 84 -195 113 -49 29 -175 101 -280 160 -104 60 -214 123 -243 142 -29 18 -56 33 -60 32 -4 0 -20 -9 -37 -20z"/>
 </g>

</svg>