<?xml version="1.0" standalone="no"?><!DOCTYPE svg PUBLIC "-//W3C//DTD SVG 1.1//EN" "http://www.w3.org/Graphics/SVG/1.1/DTD/svg11.dtd"><svg t="1569933305012" class="icon" viewBox="0 0 1024 1024" version="1.1" xmlns="http://www.w3.org/2000/svg" p-id="1107" xmlns:xlink="http://www.w3.org/1999/xlink" width="200" height="200"><defs><style type="text/css"></style></defs><path d="M168 134m8 0l672 0q8 0 8 8l0 64q0 8-8 8l-672 0q-8 0-8-8l0-64q0-8 8-8Z" p-id="1108" fill="#3C4E65"></path><path d="M168 472m8 0l672 0q8 0 8 8l0 64q0 8-8 8l-672 0q-8 0-8-8l0-64q0-8 8-8Z" p-id="1109" fill="#3C4E65"></path><path d="M168 810m8 0l672 0q8 0 8 8l0 64q0 8-8 8l-672 0q-8 0-8-8l0-64q0-8 8-8Z" p-id="1110" fill="#3C4E65"></path></svg>