<!DOCTYPE svg PUBLIC "-//W3C//DTD SVG 20010904//EN" "http://www.w3.org/TR/2001/REC-SVG-20010904/DTD/svg10.dtd">
<svg version="1.0" xmlns="http://www.w3.org/2000/svg" width="80px" height="80px" viewBox="0 0 800 800" preserveAspectRatio="xMidYMid meet">
<g id="layer101" fill="#1b1b1b" stroke="none">
 <path d="M315 718 c-157 -58 -229 -233 -155 -380 48 -96 126 -143 240 -143 115 0 189 44 242 145 18 35 23 61 23 120 0 114 -47 192 -143 241 -54 27 -158 36 -207 17z m201 -64 c30 -18 60 -48 79 -78 25 -42 30 -59 30 -116 0 -57 -5 -74 -30 -116 -19 -30 -49 -60 -79 -79 -42 -25 -59 -30 -116 -30 -57 0 -74 5 -116 30 -157 97 -147 316 18 399 71 37 145 33 214 -10z"/>
 <path d="M320 570 l0 -30 80 0 80 0 0 30 0 30 -80 0 -80 0 0 -30z"/>
 <path d="M250 460 c0 -27 3 -30 30 -30 27 0 30 3 30 30 0 27 -3 30 -30 30 -27 0 -30 -3 -30 -30z"/>
 <path d="M330 460 c0 -27 3 -30 30 -30 27 0 30 3 30 30 0 27 -3 30 -30 30 -27 0 -30 -3 -30 -30z"/>
 <path d="M410 460 c0 -27 3 -30 30 -30 27 0 30 3 30 30 0 27 -3 30 -30 30 -27 0 -30 -3 -30 -30z"/>
 <path d="M490 460 c0 -27 3 -30 30 -30 27 0 30 3 30 30 0 27 -3 30 -30 30 -27 0 -30 -3 -30 -30z"/>
 <path d="M250 380 c0 -27 3 -30 30 -30 27 0 30 3 30 30 0 27 -3 30 -30 30 -27 0 -30 -3 -30 -30z"/>
 <path d="M330 380 c0 -27 3 -30 30 -30 27 0 30 3 30 30 0 27 -3 30 -30 30 -27 0 -30 -3 -30 -30z"/>
 <path d="M410 380 c0 -27 3 -30 30 -30 27 0 30 3 30 30 0 27 -3 30 -30 30 -27 0 -30 -3 -30 -30z"/>
 <path d="M490 380 c0 -27 3 -30 30 -30 27 0 30 3 30 30 0 27 -3 30 -30 30 -27 0 -30 -3 -30 -30z"/>
 <path d="M368 108 l32 -33 32 33 33 32 -65 0 -65 0 33 -32z"/>
 </g>
<g id="layer102" fill="#656565" stroke="none">
 <path d="M368 723 c17 -2 47 -2 65 0 17 2 3 4 -33 4 -36 0 -50 -2 -32 -4z"/>
 <path d="M383 693 c9 -2 25 -2 35 0 9 3 1 5 -18 5 -19 0 -27 -2 -17 -5z"/>
 <path d="M221 664 c-18 -14 -36 -36 -42 -48 -9 -18 -7 -17 11 4 12 14 34 35 48 47 15 12 24 22 20 23 -3 0 -20 -12 -37 -26z"/>
 <path d="M562 668 c14 -13 36 -34 48 -48 12 -14 18 -18 14 -10 -11 24 -47 61 -69 71 -14 7 -11 3 7 -13z"/>
 <path d="M285 668 c-32 -17 -76 -61 -91 -90 -24 -46 -15 -44 15 4 16 25 49 57 73 72 41 25 44 37 3 14z"/>
 <path d="M518 654 c24 -15 57 -47 73 -72 29 -46 39 -51 18 -9 -17 32 -60 77 -91 93 -46 24 -45 15 0 -12z"/>
 <path d="M358 593 c23 -2 61 -2 85 0 23 2 4 4 -43 4 -47 0 -66 -2 -42 -4z"/>
 <path d="M133 460 c0 -36 2 -50 4 -32 2 17 2 47 0 65 -2 17 -4 3 -4 -33z"/>
 <path d="M663 460 c0 -36 2 -50 4 -32 2 17 2 47 0 65 -2 17 -4 3 -4 -33z"/>
 <path d="M162 460 c0 -19 2 -27 5 -17 2 9 2 25 0 35 -3 9 -5 1 -5 -18z"/>
 <path d="M250 460 c0 -27 3 -30 30 -30 27 0 30 3 30 30 0 27 -3 30 -30 30 -27 0 -30 -3 -30 -30z m50 0 c0 -13 -7 -20 -20 -20 -13 0 -20 7 -20 20 0 13 7 20 20 20 13 0 20 -7 20 -20z"/>
 <path d="M330 460 c0 -27 3 -30 30 -30 27 0 30 3 30 30 0 27 -3 30 -30 30 -27 0 -30 -3 -30 -30z m50 0 c0 -13 -7 -20 -20 -20 -13 0 -20 7 -20 20 0 13 7 20 20 20 13 0 20 -7 20 -20z"/>
 <path d="M410 460 c0 -27 3 -30 30 -30 27 0 30 3 30 30 0 27 -3 30 -30 30 -27 0 -30 -3 -30 -30z m50 0 c0 -13 -7 -20 -20 -20 -13 0 -20 7 -20 20 0 13 7 20 20 20 13 0 20 -7 20 -20z"/>
 <path d="M490 460 c0 -27 3 -30 30 -30 27 0 30 3 30 30 0 27 -3 30 -30 30 -27 0 -30 -3 -30 -30z m50 0 c0 -13 -7 -20 -20 -20 -13 0 -20 7 -20 20 0 13 7 20 20 20 13 0 20 -7 20 -20z"/>
 <path d="M632 460 c0 -19 2 -27 5 -17 2 9 2 25 0 35 -3 9 -5 1 -5 -18z"/>
 <path d="M250 380 c0 -27 3 -30 30 -30 27 0 30 3 30 30 0 27 -3 30 -30 30 -27 0 -30 -3 -30 -30z m50 0 c0 -13 -7 -20 -20 -20 -13 0 -20 7 -20 20 0 13 7 20 20 20 13 0 20 -7 20 -20z"/>
 <path d="M330 380 c0 -27 3 -30 30 -30 27 0 30 3 30 30 0 27 -3 30 -30 30 -27 0 -30 -3 -30 -30z m50 0 c0 -13 -7 -20 -20 -20 -13 0 -20 7 -20 20 0 13 7 20 20 20 13 0 20 -7 20 -20z"/>
 <path d="M410 380 c0 -27 3 -30 30 -30 27 0 30 3 30 30 0 27 -3 30 -30 30 -27 0 -30 -3 -30 -30z m50 0 c0 -13 -7 -20 -20 -20 -13 0 -20 7 -20 20 0 13 7 20 20 20 13 0 20 -7 20 -20z"/>
 <path d="M490 380 c0 -27 3 -30 30 -30 27 0 30 3 30 30 0 27 -3 30 -30 30 -27 0 -30 -3 -30 -30z m50 0 c0 -13 -7 -20 -20 -20 -13 0 -20 7 -20 20 0 13 7 20 20 20 13 0 20 -7 20 -20z"/>
 <path d="M180 377 c0 -30 61 -102 107 -126 42 -21 37 -11 -9 18 -25 16 -57 49 -72 73 -14 23 -26 39 -26 35z"/>
 <path d="M592 339 c-13 -22 -44 -53 -70 -70 -48 -30 -51 -39 -4 -15 31 16 74 61 92 94 20 40 6 33 -18 -9z"/>
 <path d="M179 305 c10 -22 47 -58 71 -69 8 -4 4 2 -10 14 -14 12 -35 34 -48 48 -16 18 -20 21 -13 7z"/>
 <path d="M580 272 c-44 -45 -39 -50 8 -8 21 18 48 57 40 55 -2 0 -23 -21 -48 -47z"/>
 <path d="M383 223 c9 -2 25 -2 35 0 9 3 1 5 -18 5 -19 0 -27 -2 -17 -5z"/>
 <path d="M368 193 c17 -2 47 -2 65 0 17 2 3 4 -33 4 -36 0 -50 -2 -32 -4z"/>
 <path d="M368 110 l32 -35 33 35 32 35 -32 -30 -33 -29 -32 29 -33 30 33 -35z"/>
 </g>
<g id="layer103" fill="#878787" stroke="none">
 <path d="M204 648 l-29 -33 33 29 c30 28 37 36 29 36 -2 0 -16 -15 -33 -32z"/>
 <path d="M560 677 c0 -2 15 -16 33 -33 l32 -29 -29 33 c-28 30 -36 37 -36 29z"/>
 <path d="M358 593 c23 -2 61 -2 85 0 23 2 4 4 -43 4 -47 0 -66 -2 -42 -4z"/>
 <path d="M180 297 c0 -2 15 -16 33 -33 l32 -29 -29 33 c-28 30 -36 37 -36 29z"/>
 <path d="M584 268 l-29 -33 33 29 c17 17 32 31 32 33 0 8 -8 1 -36 -29z"/>
 <path d="M368 110 l32 -35 33 35 32 35 -32 -30 -33 -29 -32 29 -33 30 33 -35z"/>
 </g>

</svg>