<?xml version="1.0" encoding="UTF-8"?>
<svg width="424px" height="721px" viewBox="0 0 424 721" version="1.1" xmlns="http://www.w3.org/2000/svg" xmlns:xlink="http://www.w3.org/1999/xlink">
    <!-- Generator: Sketch 52 (66869) - http://www.bohemiancoding.com/sketch -->
    <title>Group</title>
    <desc>Created with Sketch.</desc>
    <g id="加梯流程图-copy" stroke="none" stroke-width="1" fill="none" fill-rule="evenodd">
        <g id="Group">
            <g id="4-1" transform="translate(0.000000, 370.000000)">
                <rect id="Rectangle" fill="#4A90E2" x="0" y="0" width="186" height="36"></rect>
                <text id="施工图设计" font-family="PingFangSC-Semibold, PingFang SC" font-size="12" font-weight="500" fill="#FEFEFE">
                    <tspan x="63.4" y="22.14">施工图设计</tspan>
                </text>
            </g>
            <g id="4-1-copy" transform="translate(0.000000, 475.000000)">
                <rect id="Rectangle" fill="#4A90E2" x="0" y="0" width="424" height="36"></rect>
                <text id="联合审查" font-family="PingFangSC-Semibold, PingFang SC" font-size="12" font-weight="500" fill="#FEFEFE">
                    <tspan x="188.5" y="21">联合审查</tspan>
                </text>
            </g>
            <g id="4-1-copy-2" transform="translate(0.000000, 582.000000)">
                <rect id="Rectangle" fill="#4A90E2" x="0" y="0" width="119" height="36"></rect>
                <text id="组织实施" font-family="PingFangSC-Semibold, PingFang SC" font-size="12" font-weight="500" fill="#FEFEFE">
                    <tspan x="35.5" y="21.28">组织实施</tspan>
                </text>
            </g>
            <g id="4-1-copy-5" transform="translate(0.000000, 685.000000)">
                <rect id="Rectangle" fill="#4A90E2" x="0" y="0" width="186" height="36"></rect>
                <text id="竣工验收备案" font-family="PingFangSC-Semibold, PingFang SC" font-size="12" font-weight="500" fill="#FEFEFE">
                    <tspan x="57.4" y="22">竣工验收备案</tspan>
                </text>
            </g>
            <g id="4-1-copy-6" transform="translate(238.000000, 685.000000)">
                <rect id="Rectangle" fill="#4A90E2" x="0" y="0" width="186" height="36"></rect>
                <text id="交付使用" font-family="PingFangSC-Semibold, PingFang SC" font-size="12" font-weight="500" fill="#FEFEFE">
                    <tspan x="69" y="21.28">交付使用</tspan>
                </text>
            </g>
            <g id="4-1-copy-3" transform="translate(152.000000, 582.000000)">
                <rect id="Rectangle" fill="#4A90E2" x="0" y="0" width="119" height="36"></rect>
                <text id="自检" font-family="PingFangSC-Semibold, PingFang SC" font-size="12" font-weight="500" fill="#FEFEFE">
                    <tspan x="47.5" y="21.28">自检</tspan>
                </text>
            </g>
            <g id="4-1-copy-4" transform="translate(305.000000, 582.000000)">
                <rect id="Rectangle" fill="#4A90E2" x="0" y="0" width="119" height="36"></rect>
                <text id="特种设备检测" font-family="PingFangSC-Semibold, PingFang SC" font-size="12" font-weight="500" fill="#FEFEFE">
                    <tspan x="23.6" y="22">特种设备检测</tspan>
                </text>
            </g>
            <g id="4-2" transform="translate(238.000000, 370.000000)">
                <rect id="Rectangle" fill="#4A90E2" x="0" y="0" width="186" height="36"></rect>
                <text id="施工图审查" font-family="PingFangSC-Semibold, PingFang SC" font-size="12" font-weight="500" fill="#FEFEFE">
                    <tspan x="63.4" y="22.14">施工图审查</tspan>
                </text>
            </g>
            <g id="3-1" transform="translate(0.000000, 265.000000)">
                <rect id="Rectangle" fill="#4A90E2" x="0" y="0" width="424" height="36"></rect>
                <text id="协议公示" font-family="PingFangSC-Semibold, PingFang SC" font-size="12" font-weight="500" fill="#FEFEFE">
                    <tspan x="192.5" y="21">协议公示</tspan>
                </text>
            </g>
            <g id="2-2" transform="translate(238.000000, 160.000000)">
                <rect id="Rectangle" fill="#4A90E2" x="0" y="0" width="186" height="36"></rect>
                <text id="编制加装方案" font-family="PingFangSC-Semibold, PingFang SC" font-size="12" font-weight="500" fill="#FEFEFE">
                    <tspan x="57.4" y="22">编制加装方案</tspan>
                </text>
            </g>
            <g id="2-1" transform="translate(0.000000, 160.000000)">
                <rect id="Rectangle" fill="#4A90E2" x="0" y="0" width="186" height="36"></rect>
                <text id="详细勘察" font-family="PingFangSC-Semibold, PingFang SC" font-size="12" font-weight="500" fill="#FEFEFE">
                    <tspan x="71.0666667" y="21.6">详细勘察</tspan>
                </text>
            </g>
            <g id="1-1" transform="translate(0.000000, 55.000000)">
                <rect id="Rectangle" fill="#4A90E2" x="0" y="0" width="69" height="36"></rect>
                <text id="预申请" font-family="PingFangSC-Semibold, PingFang SC" font-size="12" font-weight="500" fill="#FEFEFE">
                    <tspan x="17.2666667" y="21.6">预申请</tspan>
                </text>
            </g>
            <g id="1-2" transform="translate(89.000000, 55.000000)">
                <rect id="Rectangle" fill="#4A90E2" x="0" y="0" width="69" height="36"></rect>
                <text id="现场勘测" font-family="PingFangSC-Semibold, PingFang SC" font-size="12" font-weight="500" fill="#FEFEFE">
                    <tspan x="11.2666667" y="21.6">现场勘测</tspan>
                </text>
            </g>
            <g id="1-3" transform="translate(177.000000, 55.000000)">
                <rect id="Rectangle" fill="#4A90E2" x="0" y="0" width="69" height="36"></rect>
                <text id="出具可行性报告" font-family="PingFangSC-Semibold, PingFang SC" font-size="10" font-weight="500" fill="#FEFEFE">
                    <tspan x="9.5" y="15">出具可行性</tspan>
                    <tspan x="24.5" y="29">报告</tspan>
                </text>
            </g>
            <g id="1-4" transform="translate(266.000000, 55.000000)">
                <rect id="Rectangle" fill="#4A90E2" x="0" y="0" width="69" height="36"></rect>
                <text id="正式申请" font-family="PingFangSC-Semibold, PingFang SC" font-size="12" font-weight="500" fill="#FEFEFE">
                    <tspan x="10.5" y="21.28">正式申请</tspan>
                </text>
            </g>
            <g id="1-5" transform="translate(355.000000, 55.000000)">
                <rect id="Rectangle" fill="#4A90E2" x="0" y="0" width="69" height="36"></rect>
                <text id="签订合同" font-family="PingFangSC-Semibold, PingFang SC" font-size="12" font-weight="500" fill="#FEFEFE">
                    <tspan x="10.5" y="21.28">签订合同</tspan>
                </text>
            </g>
            <g id="L1">
                <rect id="Rectangle" fill="#074798" x="0" y="0" width="424" height="41"></rect>
                <text id="text" font-family="AbadiMT-CondensedExtraBold, Abadi MT Condensed Extra Bold" font-size="20" font-style="condensed" font-weight="bold" fill="#FDFDFD">
                    <tspan x="12.7292899" y="27">1. </tspan>
                    <tspan x="33.871868" y="27" font-family="PingFangSC-Semibold, PingFang SC" font-size="14" font-weight="500"> 确定申请人和实施主体</tspan>
                </text>
                <g id="team" transform="translate(381.000000, 6.000000)">
                    <rect id="Rectangle" fill="#000000" opacity="0" x="0" y="0" width="30" height="30"></rect>
                    <path d="M23.4757044,19.9023038 C22.7454581,19.1720753 21.9030874,18.5884674 20.991717,18.1658548 C22.2940854,17.1107607 23.1249561,15.5008079 23.1249561,13.6953609 C23.1249561,10.5099543 20.4684697,7.89665597 17.2829858,7.94552953 C14.1463768,7.9944031 11.6192646,10.5502031 11.6192646,13.6953609 C11.6192646,15.5008079 12.4530104,17.1107607 13.7525038,18.1658548 C12.8411334,18.5884674 12.0016377,19.1692003 11.2685164,19.9023038 C9.69877441,21.4748827 8.80752895,23.5505718 8.75002924,25.7642569 C8.74715425,25.8936281 8.85065373,26 8.98002807,26 L10.5900199,26 C10.7136443,26 10.8171437,25.9022529 10.8200187,25.7786315 C10.8746434,24.1111804 11.550265,22.5501012 12.737634,21.3656359 C13.9767527,20.1265473 15.6241193,19.4451923 17.3749854,19.4451923 C19.1258515,19.4451923 20.7732181,20.1265473 22.0123368,21.3656359 C23.1968308,22.5501012 23.8724523,24.1111804 23.929952,25.7786315 C23.932827,25.9022529 24.0363265,26 24.1599509,26 L25.7699427,26 C25.899317,26 26.0028165,25.8936281 25.9999415,25.7642569 C25.9424418,23.5505718 25.0511963,21.4748827 23.4757044,19.9023038 Z M17.3749854,17.375253 C16.3917404,17.375253 15.4659951,16.9928892 14.7731236,16.2971596 C14.0687522,15.5928052 13.6835042,14.6555827 13.6950041,13.657987 C13.703629,12.7150146 14.0802521,11.8036664 14.7386238,11.1280612 C15.4286203,10.4208319 16.3514906,10.0269685 17.3376106,10.0154688 C18.3122306,10.0068441 19.2581008,10.3863329 19.9538473,11.067688 C20.6668436,11.7662925 21.0578417,12.7006401 21.0578417,13.6953609 C21.0578417,14.6785821 20.6754686,15.60143 19.9797221,16.2971596 C19.2839757,16.9928892 18.3582304,17.375253 17.3749854,17.375253 Z M10.173147,14.4543386 C10.1472721,14.204221 10.1328972,13.9512284 10.1328972,13.6953609 C10.1328972,13.2382493 10.176022,12.7926374 10.2565216,12.3585251 C10.2766465,12.2550281 10.2220218,12.1486563 10.1271472,12.1055325 C9.73614922,11.9301627 9.37677605,11.6886697 9.06627763,11.3839287 C8.3245314,10.6594499 7.92490843,9.67910369 7.95365829,8.64125913 C7.97953316,7.71841119 8.35040627,6.84156191 8.99727798,6.1803313 C9.70739937,5.45297764 10.6618945,5.05623927 11.6767644,5.06773894 C12.5938847,5.07636368 13.4793802,5.42997831 14.1492518,6.05670993 C14.3763756,6.26945369 14.5718746,6.50519678 14.7357488,6.75818936 C14.7932485,6.84731174 14.9053729,6.88468565 15.0031224,6.85018666 C15.5091199,6.6748168 16.0438671,6.55119543 16.5929894,6.49369711 C16.7539885,6.47644762 16.8459881,6.30395268 16.7741134,6.16020689 C15.8397432,4.31163611 13.9307529,3.03517355 11.7227641,3.00067456 C8.53440533,2.951801 5.87791884,5.56509935 5.87791884,8.74763101 C5.87791884,10.5530781 6.70878962,12.1630308 8.011158,13.2181249 C7.09691264,13.6407375 6.25454193,14.2243454 5.52429564,14.954574 C3.94880365,16.5271528 3.05755818,18.602842 3.00005848,20.8194019 C2.99718349,20.9487732 3.10068297,21.055145 3.23005731,21.055145 L4.84292411,21.055145 C4.96654848,21.055145 5.07004795,20.9573979 5.07292294,20.8337765 C5.12754766,19.1663254 5.80316922,17.6052462 6.99053819,16.420781 C7.83578389,15.5755557 8.87077862,14.9890729 10.0006479,14.7044563 C10.1127723,14.6757071 10.1875219,14.5693353 10.173147,14.4543386 Z" id="Shape" fill="#F7F7F7" fill-rule="nonzero"></path>
                </g>
            </g>
            <g id="L2" transform="translate(0.000000, 105.000000)">
                <rect id="Rectangle" fill="#074798" x="0" y="0" width="424" height="41"></rect>
                <text id="text" font-family="AbadiMT-CondensedExtraBold, Abadi MT Condensed Extra Bold" font-size="20" font-style="condensed" font-weight="bold" fill="#FDFDFD">
                    <tspan x="19.7292899" y="27">2. </tspan>
                    <tspan x="40.871868" y="27" font-family="PingFangSC-Semibold, PingFang SC" font-size="14" font-weight="500"> 详细勘测和加装方案</tspan>
                </text>
                <g id="edit" transform="translate(377.000000, 6.000000)">
                    <rect id="Rectangle" fill="#000000" opacity="0" x="0" y="0" width="30" height="30"></rect>
                    <path d="M11.2685547,21.75 C11.3271484,21.75 11.3857422,21.7441406 11.4443359,21.7353516 L16.3720703,20.8710938 C16.4306641,20.859375 16.4863281,20.8330078 16.5273438,20.7890625 L28.9462891,8.37011719 C29.0605469,8.25585938 29.0605469,8.07128906 28.9462891,7.95703125 L24.0771484,3.08496094 C24.0214844,3.02929688 23.9482422,3 23.8691406,3 C23.7900391,3 23.7167969,3.02929688 23.6611328,3.08496094 L11.2421875,15.5039062 C11.1982422,15.5478516 11.171875,15.6005859 11.1601562,15.6591797 L10.2958984,20.5869141 C10.2402344,20.9121094 10.3398438,21.2285156 10.5712891,21.4599609 C10.7646484,21.6474609 11.0078125,21.75 11.2685547,21.75 Z M13.2431641,16.640625 L23.8691406,6.01757812 L26.0166016,8.16503906 L15.390625,18.7880859 L12.7861328,19.2480469 L13.2431641,16.640625 Z M29.5,24.2109375 L7.9375,24.2109375 C7.41894531,24.2109375 7,24.6298828 7,25.1484375 L7,26.203125 C7,26.3320312 7.10546875,26.4375 7.234375,26.4375 L30.203125,26.4375 C30.3320312,26.4375 30.4375,26.3320312 30.4375,26.203125 L30.4375,25.1484375 C30.4375,24.6298828 30.0185547,24.2109375 29.5,24.2109375 Z" id="Shape" fill="#FFFFFF" fill-rule="nonzero"></path>
                </g>
            </g>
            <g id="L3" transform="translate(0.000000, 210.000000)">
                <rect id="Rectangle" fill="#074798" x="0" y="0" width="424" height="41"></rect>
                <text id="text" font-family="AbadiMT-CondensedExtraBold, Abadi MT Condensed Extra Bold" font-size="20" font-style="condensed" font-weight="bold" fill="#FDFDFD">
                    <tspan x="23" y="25">3. </tspan>
                    <tspan x="44.1425781" y="25" font-family="PingFangSC-Semibold, PingFang SC" font-size="14" font-weight="500"> 协议公示</tspan>
                </text>
                <g id="line-chart" transform="translate(382.000000, 5.000000)">
                    <rect id="Rectangle" fill="#000000" opacity="0" x="0" y="0" width="30" height="30"></rect>
                    <path d="M26.015625,23.203125 L5.859375,23.203125 L5.859375,4.921875 C5.859375,4.79296875 5.75390625,4.6875 5.625,4.6875 L3.984375,4.6875 C3.85546875,4.6875 3.75,4.79296875 3.75,4.921875 L3.75,25.078125 C3.75,25.2070312 3.85546875,25.3125 3.984375,25.3125 L26.015625,25.3125 C26.1445312,25.3125 26.25,25.2070312 26.25,25.078125 L26.25,23.4375 C26.25,23.3085938 26.1445312,23.203125 26.015625,23.203125 Z M8.95898438,18.6826172 C9.04980469,18.7734375 9.19628906,18.7734375 9.29003906,18.6826172 L13.3417969,14.6513672 L17.0800781,18.4130859 C17.1708984,18.5039062 17.3203125,18.5039062 17.4111328,18.4130859 L25.4794922,10.3476562 C25.5703125,10.2568359 25.5703125,10.1074219 25.4794922,10.0166016 L24.3193359,8.85644531 C24.2285156,8.765625 24.0791016,8.765625 23.9882812,8.85644531 L17.25,15.5917969 L13.5175781,11.8359375 C13.4267578,11.7451172 13.2773438,11.7451172 13.1865234,11.8359375 L7.80175781,17.1884766 C7.7109375,17.2792969 7.7109375,17.4287109 7.80175781,17.5195312 L8.95898438,18.6826172 Z" id="Shape" fill="#FFFFFF" fill-rule="nonzero"></path>
                </g>
            </g>
            <g id="L4" transform="translate(0.000000, 315.000000)">
                <rect id="Rectangle" fill="#074798" x="0" y="0" width="424" height="41"></rect>
                <text id="text" font-family="AbadiMT-CondensedExtraBold, Abadi MT Condensed Extra Bold" font-size="20" font-style="condensed" font-weight="bold" fill="#FDFDFD">
                    <tspan x="23" y="25">4. </tspan>
                    <tspan x="44.1425781" y="25" font-family="PingFangSC-Semibold, PingFang SC" font-size="14" font-weight="500"> 施工图图审备案</tspan>
                </text>
                <g id="group" transform="translate(382.000000, 6.000000)">
                    <rect id="Rectangle" fill="#000000" opacity="0" x="0" y="0" width="30" height="30"></rect>
                    <path d="M26.71875,24.0263672 L26.71875,5.97363281 C27.5390625,5.68359375 28.125,4.90136719 28.125,3.984375 C28.125,2.81835938 27.1816406,1.875 26.015625,1.875 C25.0986328,1.875 24.3164062,2.4609375 24.0263672,3.28125 L5.97363281,3.28125 C5.68359375,2.4609375 4.90136719,1.875 3.984375,1.875 C2.81835938,1.875 1.875,2.81835938 1.875,3.984375 C1.875,4.90136719 2.4609375,5.68359375 3.28125,5.97363281 L3.28125,24.0263672 C2.4609375,24.3164062 1.875,25.0986328 1.875,26.015625 C1.875,27.1816406 2.81835938,28.125 3.984375,28.125 C4.90136719,28.125 5.68359375,27.5390625 5.97363281,26.71875 L24.0263672,26.71875 C24.3164062,27.5390625 25.0986328,28.125 26.015625,28.125 C27.1816406,28.125 28.125,27.1816406 28.125,26.015625 C28.125,25.0986328 27.5390625,24.3164062 26.71875,24.0263672 Z M26.015625,3.28125 C26.4052734,3.28125 26.71875,3.59472656 26.71875,3.984375 C26.71875,4.37402344 26.4052734,4.6875 26.015625,4.6875 C25.6259766,4.6875 25.3125,4.37402344 25.3125,3.984375 C25.3125,3.59472656 25.6259766,3.28125 26.015625,3.28125 Z M3.984375,26.71875 C3.59472656,26.71875 3.28125,26.4052734 3.28125,26.015625 C3.28125,25.6259766 3.59472656,25.3125 3.984375,25.3125 C4.37402344,25.3125 4.6875,25.6259766 4.6875,26.015625 C4.6875,26.4052734 4.37402344,26.71875 3.984375,26.71875 Z M3.984375,4.6875 C3.59472656,4.6875 3.28125,4.37402344 3.28125,3.984375 C3.28125,3.59472656 3.59472656,3.28125 3.984375,3.28125 C4.37402344,3.28125 4.6875,3.59472656 4.6875,3.984375 C4.6875,4.37402344 4.37402344,4.6875 3.984375,4.6875 Z M24.609375,24.609375 L5.390625,24.609375 L5.390625,5.390625 L24.609375,5.390625 L24.609375,24.609375 Z M26.015625,26.71875 C25.6259766,26.71875 25.3125,26.4052734 25.3125,26.015625 C25.3125,25.6259766 25.6259766,25.3125 26.015625,25.3125 C26.4052734,25.3125 26.71875,25.6259766 26.71875,26.015625 C26.71875,26.4052734 26.4052734,26.71875 26.015625,26.71875 Z M8.4375,13.8867188 L21.5625,13.8867188 C21.8203125,13.8867188 22.03125,13.6757812 22.03125,13.4179688 L22.03125,8.26171875 C22.03125,8.00390625 21.8203125,7.79296875 21.5625,7.79296875 L8.4375,7.79296875 C8.1796875,7.79296875 7.96875,8.00390625 7.96875,8.26171875 L7.96875,13.4179688 C7.96875,13.6757812 8.1796875,13.8867188 8.4375,13.8867188 Z M10.078125,9.90234375 L19.921875,9.90234375 L19.921875,11.7773438 L10.078125,11.7773438 L10.078125,9.90234375 Z M8.4375,22.2070312 L21.5625,22.2070312 C21.8203125,22.2070312 22.03125,21.9960938 22.03125,21.7382812 L22.03125,16.5820312 C22.03125,16.3242188 21.8203125,16.1132812 21.5625,16.1132812 L8.4375,16.1132812 C8.1796875,16.1132812 7.96875,16.3242188 7.96875,16.5820312 L7.96875,21.7382812 C7.96875,21.9960938 8.1796875,22.2070312 8.4375,22.2070312 Z M10.078125,18.2226562 L19.921875,18.2226562 L19.921875,20.0976562 L10.078125,20.0976562 L10.078125,18.2226562 Z" id="Shape" fill="#FFFFFF" fill-rule="nonzero"></path>
                </g>
            </g>
            <g id="L5" transform="translate(0.000000, 420.000000)">
                <rect id="Rectangle" fill="#074798" x="0" y="0" width="424" height="41"></rect>
                <text id="text" font-family="AbadiMT-CondensedExtraBold, Abadi MT Condensed Extra Bold" font-size="20" font-style="condensed" font-weight="bold" fill="#FDFDFD">
                    <tspan x="23" y="25">5. </tspan>
                    <tspan x="44.1425781" y="25" font-family="PingFangSC-Semibold, PingFang SC" font-size="14" font-weight="500"> 政府组织审查</tspan>
                </text>
                <g id="pic-left" transform="translate(380.000000, 6.000000)">
                    <rect id="Rectangle" fill="#000000" opacity="0" x="0" y="0" width="30" height="30"></rect>
                    <path d="M27.890625,23.203125 L2.109375,23.203125 C1.98046875,23.203125 1.875,23.3085938 1.875,23.4375 L1.875,25.078125 C1.875,25.2070312 1.98046875,25.3125 2.109375,25.3125 L27.890625,25.3125 C28.0195312,25.3125 28.125,25.2070312 28.125,25.078125 L28.125,23.4375 C28.125,23.3085938 28.0195312,23.203125 27.890625,23.203125 Z M27.890625,4.6875 L2.109375,4.6875 C1.98046875,4.6875 1.875,4.79296875 1.875,4.921875 L1.875,6.5625 C1.875,6.69140625 1.98046875,6.796875 2.109375,6.796875 L27.890625,6.796875 C28.0195312,6.796875 28.125,6.69140625 28.125,6.5625 L28.125,4.921875 C28.125,4.79296875 28.0195312,4.6875 27.890625,4.6875 Z M17.8125,19.3359375 C18.0703125,19.3359375 18.28125,19.125 18.28125,18.8671875 L18.28125,11.1328125 C18.28125,10.875 18.0703125,10.6640625 17.8125,10.6640625 L2.8125,10.6640625 C2.5546875,10.6640625 2.34375,10.875 2.34375,11.1328125 L2.34375,18.8671875 C2.34375,19.125 2.5546875,19.3359375 2.8125,19.3359375 L17.8125,19.3359375 Z M4.453125,12.7734375 L16.171875,12.7734375 L16.171875,17.2265625 L4.453125,17.2265625 L4.453125,12.7734375 Z M20.625,18.9257812 C20.625,19.0546875 20.7304688,19.1601562 20.859375,19.1601562 L27.421875,19.1601562 C27.5507812,19.1601562 27.65625,19.0546875 27.65625,18.9257812 L27.65625,17.2851562 C27.65625,17.15625 27.5507812,17.0507812 27.421875,17.0507812 L20.859375,17.0507812 C20.7304688,17.0507812 20.625,17.15625 20.625,17.2851562 L20.625,18.9257812 Z M20.859375,12.9492188 L27.421875,12.9492188 C27.5507812,12.9492188 27.65625,12.84375 27.65625,12.7148438 L27.65625,11.0742188 C27.65625,10.9453125 27.5507812,10.8398438 27.421875,10.8398438 L20.859375,10.8398438 C20.7304688,10.8398438 20.625,10.9453125 20.625,11.0742188 L20.625,12.7148438 C20.625,12.84375 20.7304688,12.9492188 20.859375,12.9492188 Z" id="Shape" fill="#FFFFFF" fill-rule="nonzero"></path>
                </g>
            </g>
            <g id="L6" transform="translate(0.000000, 525.000000)">
                <rect id="Rectangle" fill="#074798" x="0" y="0" width="424" height="41"></rect>
                <text id="text" font-family="AbadiMT-CondensedExtraBold, Abadi MT Condensed Extra Bold" font-size="20" font-style="condensed" font-weight="bold" fill="#FDFDFD">
                    <tspan x="23" y="25">6. </tspan>
                    <tspan x="44.1425781" y="25" font-family="PingFangSC-Semibold, PingFang SC" font-size="14" font-weight="500"> 施工单位实施加装作业</tspan>
                </text>
                <g id="shop" transform="translate(380.000000, 6.000000)">
                    <rect id="Rectangle" fill="#000000" opacity="0" x="0" y="0" width="30" height="30"></rect>
                    <path d="M25.8398438,7.97167969 L25.8398438,4.21875 C25.8398438,3.70019531 25.4208984,3.28125 24.9023438,3.28125 L5.09765625,3.28125 C4.57910156,3.28125 4.16015625,3.70019531 4.16015625,4.21875 L4.16015625,7.97167969 C3.67089844,8.00097656 3.28125,8.40820312 3.28125,8.90625 L3.28125,12.7646484 C3.28125,13.4794922 3.421875,14.1738281 3.703125,14.8271484 C3.82910156,15.1259766 3.984375,15.4072266 4.16015625,15.6738281 L4.16015625,25.78125 C4.16015625,26.296875 4.57910156,26.71875 5.09765625,26.71875 L24.9023438,26.71875 C25.4208984,26.71875 25.8398438,26.2998047 25.8398438,25.78125 L25.8398438,15.6738281 C26.0185547,15.4072266 26.1708984,15.1230469 26.296875,14.8271484 C26.5751953,14.1738281 26.71875,13.4794922 26.71875,12.7646484 L26.71875,8.90625 C26.71875,8.40820312 26.3291016,8.00097656 25.8398438,7.97167969 Z M6.26953125,5.390625 L23.7304688,5.390625 L23.7304688,7.96875 L6.26953125,7.96875 L6.26953125,5.390625 Z M16.875,24.6123047 L13.125,24.6123047 L13.125,21.5625 L16.875,21.5625 L16.875,24.6123047 Z M23.7304688,24.6123047 L18.75,24.6123047 L18.75,20.625 C18.75,20.1064453 18.3310547,19.6875 17.8125,19.6875 L12.1875,19.6875 C11.6689453,19.6875 11.25,20.1064453 11.25,20.625 L11.25,24.6123047 L6.26953125,24.6123047 L6.26953125,17.5166016 C6.35449219,17.5576172 6.44238281,17.5986328 6.53320312,17.6337891 C7.18652344,17.9091797 7.88085938,18.046875 8.59570312,18.046875 C9.31054687,18.046875 10.0019531,17.9091797 10.6582031,17.6337891 C11.0625,17.4638672 11.4433594,17.2470703 11.7919922,16.9863281 C11.7978516,16.9833984 11.8037109,16.9833984 11.8095703,16.9863281 C12.1582031,17.2470703 12.5361328,17.4638672 12.9433594,17.6337891 C13.5966797,17.9091797 14.2910156,18.046875 15.0058594,18.046875 C15.7207031,18.046875 16.4121094,17.9091797 17.0683594,17.6337891 C17.4726562,17.4638672 17.8535156,17.2470703 18.2021484,16.9863281 C18.2080078,16.9833984 18.2138672,16.9833984 18.2197266,16.9863281 C18.5683594,17.2470703 18.9462891,17.4638672 19.3535156,17.6337891 C20.0068359,17.9091797 20.7011719,18.046875 21.4160156,18.046875 C22.1308594,18.046875 22.8222656,17.9091797 23.4785156,17.6337891 C23.5664062,17.5957031 23.6542969,17.5576172 23.7421875,17.5166016 L23.7421875,24.6123047 L23.7304688,24.6123047 Z M24.609375,12.7646484 C24.609375,14.5166016 23.1738281,15.9375 21.4072266,15.9375 C20.2119141,15.9375 19.1689453,15.2900391 18.6181641,14.3291016 C18.5332031,14.1826172 18.3808594,14.0917969 18.2109375,14.0917969 L18.1933594,14.0917969 C18.0263672,14.0917969 17.8710938,14.1826172 17.7861328,14.3291016 C17.2382812,15.2900391 16.1953125,15.9375 15,15.9375 C13.8076172,15.9375 12.7675781,15.2929688 12.2167969,14.3349609 C12.1289062,14.1855469 11.9707031,14.0917969 11.7978516,14.0917969 C11.625,14.0917969 11.4638672,14.1855469 11.3789062,14.3349609 C10.8251953,15.2929688 9.78515625,15.9375 8.59277344,15.9375 C6.82617188,15.9375 5.390625,14.5166016 5.390625,12.7646484 L5.390625,10.0927734 C5.390625,10.0839844 5.39648438,10.078125 5.40527344,10.078125 L24.5947266,10.078125 C24.6035156,10.078125 24.609375,10.0839844 24.609375,10.0927734 L24.609375,12.7646484 Z" id="Shape" fill="#FFFFFF" fill-rule="nonzero"></path>
                </g>
            </g>
            <g id="L7" transform="translate(0.000000, 632.000000)">
                <rect id="Rectangle" fill="#074798" x="0" y="0" width="424" height="41"></rect>
                <text id="text" font-family="AbadiMT-CondensedExtraBold, Abadi MT Condensed Extra Bold" font-size="20" font-style="condensed" font-weight="bold" fill="#FDFDFD">
                    <tspan x="23" y="25">7. </tspan>
                    <tspan x="44.1425781" y="25" font-family="PingFangSC-Semibold, PingFang SC" font-size="14" font-weight="500"> 竣工验收和使用登记</tspan>
                </text>
                <g id="trophy" transform="translate(380.000000, 5.000000)">
                    <rect id="Rectangle" fill="#000000" opacity="0" x="0" y="0" width="30" height="30"></rect>
                    <path d="M25.4296875,4.6875 L22.734375,4.6875 L22.734375,3.515625 C22.734375,3.38671875 22.6289062,3.28125 22.5,3.28125 L7.5,3.28125 C7.37109375,3.28125 7.265625,3.38671875 7.265625,3.515625 L7.265625,4.6875 L4.5703125,4.6875 C3.85839844,4.6875 3.28125,5.26464844 3.28125,5.9765625 L3.28125,10.3125 C3.28125,12.7060547 5.0390625,14.6953125 7.33007812,15.0585937 C7.78417969,18.4628906 10.5175781,21.1435547 13.9453125,21.5185547 L13.9453125,24.6005859 L8.203125,24.6005859 C7.68457031,24.6005859 7.265625,25.0195312 7.265625,25.5380859 L7.265625,26.484375 C7.265625,26.6132812 7.37109375,26.71875 7.5,26.71875 L22.5,26.71875 C22.6289062,26.71875 22.734375,26.6132812 22.734375,26.484375 L22.734375,25.5380859 C22.734375,25.0195312 22.3154297,24.6005859 21.796875,24.6005859 L16.0546875,24.6005859 L16.0546875,21.5185547 C19.4824219,21.1435547 22.2158203,18.4628906 22.6699219,15.0585937 C24.9609375,14.6953125 26.71875,12.7060547 26.71875,10.3125 L26.71875,5.9765625 C26.71875,5.26464844 26.1416016,4.6875 25.4296875,4.6875 Z M5.390625,10.3125 L5.390625,6.796875 L7.265625,6.796875 L7.265625,12.8789062 C6.17871094,12.5332031 5.390625,11.5136719 5.390625,10.3125 Z M20.625,14.0625 C20.625,15.5009766 20.0654297,16.8574219 19.0458984,17.8740234 C18.0263672,18.8935547 16.6728516,19.453125 15.234375,19.453125 L14.765625,19.453125 C13.3271484,19.453125 11.9707031,18.8935547 10.9541016,17.8740234 C9.93457031,16.8544922 9.375,15.5009766 9.375,14.0625 L9.375,5.390625 L20.625,5.390625 L20.625,14.0625 Z M24.609375,10.3125 C24.609375,11.5136719 23.8212891,12.5332031 22.734375,12.8789062 L22.734375,6.796875 L24.609375,6.796875 L24.609375,10.3125 Z" id="Shape" fill="#FFFFFF" fill-rule="nonzero"></path>
                </g>
            </g>
        </g>
    </g>
</svg>